<svg width="16" height="14" viewBox="0 0 16 14" fill="none" xmlns="http://www.w3.org/2000/svg">
<path d="M13.7163 3.73066V2.08596H12.0716V1.6447H13.7163V0H14.1576V1.6447H15.8023V2.08596H14.1576V3.73066H13.7163ZM1.28079 14C0.973242 14 0.71584 13.8964 0.508581 13.6891C0.301322 13.4819 0.197693 13.2245 0.197693 12.9169V4.37249C0.197693 4.06495 0.301322 3.80755 0.508581 3.60029C0.71584 3.39303 0.973242 3.2894 1.28079 3.2894H3.74784L5.21202 1.6447H10.3467V2.08596H5.41259L3.92835 3.73066H1.28079C1.10696 3.73066 0.956528 3.79417 0.829498 3.9212C0.702469 4.04823 0.638954 4.19866 0.638954 4.37249V12.9169C0.638954 13.1041 0.702469 13.2579 0.829498 13.3782C0.956528 13.4986 1.10696 13.5587 1.28079 13.5587H13.0745C13.2617 13.5587 13.4155 13.4986 13.5358 13.3782C13.6561 13.2579 13.7163 13.1041 13.7163 12.9169V5.45559H14.1576V12.9169C14.1576 13.2245 14.054 13.4819 13.8467 13.6891C13.6394 13.8964 13.382 14 13.0745 14H1.28079ZM7.17764 11.3926C7.95319 11.3926 8.60505 11.1285 9.13322 10.6003C9.6614 10.0721 9.92549 9.42025 9.92549 8.6447C9.92549 7.86915 9.6614 7.21729 9.13322 6.68911C8.60505 6.16094 7.95319 5.89685 7.17764 5.89685C6.40209 5.89685 5.75022 6.16094 5.22205 6.68911C4.69387 7.21729 4.42978 7.86915 4.42978 8.6447C4.42978 9.42025 4.69387 10.0721 5.22205 10.6003C5.75022 11.1285 6.40209 11.3926 7.17764 11.3926ZM7.17764 10.9513C6.52243 10.9513 5.9742 10.7307 5.53294 10.2894C5.09168 9.84814 4.87105 9.2999 4.87105 8.6447C4.87105 7.98949 5.09168 7.44126 5.53294 7C5.9742 6.55874 6.52243 6.33811 7.17764 6.33811C7.83284 6.33811 8.38107 6.55874 8.82234 7C9.2636 7.44126 9.48423 7.98949 9.48423 8.6447C9.48423 9.2999 9.2636 9.84814 8.82234 10.2894C8.38107 10.7307 7.83284 10.9513 7.17764 10.9513Z" fill="black"/>
</svg>
