<svg width="16" height="16" viewBox="0 0 16 16" fill="none" xmlns="http://www.w3.org/2000/svg">
<path d="M5.27274 5.45455C5.04546 5.45455 4.87122 5.34849 4.75001 5.13636C4.6288 4.92424 4.63637 4.7197 4.77274 4.52273L7.02274 0.795454C7.1288 0.598485 7.30304 0.5 7.54546 0.5C7.78789 0.5 7.96971 0.598485 8.09092 0.795454L10.3409 4.52273C10.4621 4.7197 10.4621 4.92424 10.3409 5.13636C10.2197 5.34849 10.0455 5.45455 9.81819 5.45455H5.27274ZM12.5909 15.5C11.697 15.5 10.9508 15.197 10.3523 14.5909C9.7538 13.9848 9.45455 13.2348 9.45455 12.3409C9.45455 11.4621 9.7538 10.7235 10.3523 10.125C10.9508 9.52652 11.697 9.22727 12.5909 9.22727C13.4697 9.22727 14.2121 9.52652 14.8182 10.125C15.4243 10.7235 15.7273 11.4621 15.7273 12.3409C15.7273 13.2348 15.4243 13.9848 14.8182 14.5909C14.2121 15.197 13.4697 15.5 12.5909 15.5ZM0.886372 15C0.704554 15 0.556827 14.9394 0.44319 14.8182C0.329554 14.697 0.272736 14.553 0.272736 14.3864V10.2727C0.272736 10.1061 0.333341 9.96212 0.454554 9.84091C0.575766 9.7197 0.719705 9.65909 0.886372 9.65909H5.00001C5.18183 9.65909 5.32955 9.72349 5.44319 9.85227C5.55683 9.98106 5.61364 10.1212 5.61364 10.2727V14.3864C5.61364 14.5682 5.55304 14.7159 5.43183 14.8295C5.31061 14.9432 5.16667 15 5.00001 15H0.886372ZM12.5909 15C13.3182 15 13.9394 14.7424 14.4546 14.2273C14.9697 13.7121 15.2273 13.0833 15.2273 12.3409C15.2273 11.6136 14.9697 10.9962 14.4546 10.4886C13.9394 9.98106 13.3106 9.72727 12.5682 9.72727C11.8409 9.72727 11.2235 9.98106 10.7159 10.4886C10.2083 10.9962 9.95455 11.6212 9.95455 12.3636C9.95455 13.0909 10.2083 13.7121 10.7159 14.2273C11.2235 14.7424 11.8485 15 12.5909 15ZM0.772736 14.5H5.11364V10.1591H0.772736V14.5ZM5.04546 4.95455H10.0682L7.54546 0.954545L5.04546 4.95455Z" fill="black"/>
</svg>
