<svg width="16" height="15" viewBox="0 0 16 15" fill="none" xmlns="http://www.w3.org/2000/svg">
<path d="M7.69827 13.1466H8.25862V12.1336C8.8908 12.1336 9.49425 11.9397 10.069 11.5517C10.6437 11.1638 10.931 10.5747 10.931 9.78448C10.931 9.13793 10.7335 8.62069 10.3384 8.23276C9.94325 7.84483 9.23563 7.4569 8.21552 7.06896C7.2385 6.70977 6.62069 6.40086 6.36207 6.14224C6.10345 5.88362 5.97414 5.51006 5.97414 5.02155C5.97414 4.54741 6.1681 4.14511 6.55603 3.81466C6.94396 3.4842 7.43965 3.31897 8.0431 3.31897C8.47414 3.31897 8.8477 3.41236 9.16379 3.59914C9.47988 3.78592 9.75287 4.03736 9.98276 4.35345L10.4353 4.15948C10.1911 3.77155 9.88218 3.46264 9.50862 3.23276C9.13506 3.00287 8.73276 2.87356 8.30172 2.84483V1.85345H7.74138V2.84483C6.97988 2.9454 6.40517 3.20402 6.01724 3.62069C5.62931 4.03736 5.43534 4.50431 5.43534 5.02155C5.43534 5.63937 5.6329 6.12787 6.02802 6.48707C6.42313 6.84626 7.10201 7.20546 8.06465 7.56465C9.01293 7.93822 9.64152 8.27227 9.95043 8.56681C10.2593 8.86135 10.4138 9.26724 10.4138 9.78448C10.4138 10.431 10.1731 10.9016 9.69181 11.1961C9.21049 11.4907 8.68965 11.6379 8.12931 11.6379C7.61207 11.6379 7.13793 11.4943 6.7069 11.2069C6.27586 10.9195 5.93103 10.5172 5.67241 10L5.19828 10.2155C5.48563 10.7615 5.83764 11.1782 6.25431 11.4655C6.67098 11.7529 7.1523 11.9612 7.69827 12.0905V13.1466ZM8 15C6.96552 15 5.99569 14.8024 5.09052 14.4073C4.18534 14.0122 3.39152 13.4734 2.70905 12.7909C2.02658 12.1085 1.48779 11.3147 1.09267 10.4095C0.697557 9.50431 0.5 8.53448 0.5 7.5C0.5 6.46552 0.697557 5.4921 1.09267 4.57974C1.48779 3.66738 2.02658 2.87356 2.70905 2.19828C3.39152 1.52299 4.18534 0.987787 5.09052 0.592672C5.99569 0.197557 6.96552 0 8 0C9.03448 0 10.0079 0.197557 10.9203 0.592672C11.8326 0.987787 12.6264 1.52299 13.3017 2.19828C13.977 2.87356 14.5122 3.66738 14.9073 4.57974C15.3024 5.4921 15.5 6.46552 15.5 7.5C15.5 8.53448 15.3024 9.50431 14.9073 10.4095C14.5122 11.3147 13.977 12.1085 13.3017 12.7909C12.6264 13.4734 11.8326 14.0122 10.9203 14.4073C10.0079 14.8024 9.03448 15 8 15ZM8 14.5259C9.95402 14.5259 11.6135 13.8434 12.9784 12.4784C14.3434 11.1135 15.0259 9.45402 15.0259 7.5C15.0259 5.54598 14.3434 3.88649 12.9784 2.52155C11.6135 1.15661 9.95402 0.474138 8 0.474138C6.04598 0.474138 4.38649 1.15661 3.02155 2.52155C1.65661 3.88649 0.974138 5.54598 0.974138 7.5C0.974138 9.45402 1.65661 11.1135 3.02155 12.4784C4.38649 13.8434 6.04598 14.5259 8 14.5259Z" fill="black"/>
</svg>
