<svg width="20" height="20" viewBox="0 0 20 20" fill="none" xmlns="http://www.w3.org/2000/svg">
<path fill-rule="evenodd" clip-rule="evenodd" d="M10.1993 8.57143V12H15.8707C15.6421 13.47 14.1564 16.3143 10.1993 16.3143C6.785 16.3143 3.99929 13.4871 3.99929 10C3.99929 6.51429 6.785 3.68571 10.1993 3.68571C12.1421 3.68571 13.4421 4.51429 14.185 5.22857L16.8993 2.61429C15.1564 0.985714 12.8993 0 10.1993 0C4.67072 0 0.199287 4.47143 0.199287 10C0.199287 15.5286 4.67072 20 10.1993 20C15.9707 20 19.8007 15.9429 19.8007 10.2286C19.8007 9.57143 19.7279 9.07143 19.6421 8.57143H10.1993Z" fill="white"/>
</svg>
